<svg xmlns="http://www.w3.org/2000/svg" width="960" height="520" viewBox="0 0 960 520" role="img" aria-label="Fertilizer use intensity">
<rect width="100%" height="100%" fill="#fafafa"/>
<text x="86" y="30" font-size="23" font-weight="700" fill="#111827">Fertilizer use intensity</text>
<text x="86" y="52" font-size="13" fill="#52525b">Nutrient use per hectare; not a direct measure of nutrient runoff.</text>
<line x1="86" x2="924" y1="462" y2="462" stroke="#d4d4d8" stroke-width="1"/><text x="76" y="466" text-anchor="end" font-size="12" fill="#52525b">0</text>
<line x1="86" x2="924" y1="361" y2="361" stroke="#d4d4d8" stroke-width="1"/><text x="76" y="365" text-anchor="end" font-size="12" fill="#52525b">30.8</text>
<line x1="86" x2="924" y1="260" y2="260" stroke="#d4d4d8" stroke-width="1"/><text x="76" y="264" text-anchor="end" font-size="12" fill="#52525b">61.6</text>
<line x1="86" x2="924" y1="159" y2="159" stroke="#d4d4d8" stroke-width="1"/><text x="76" y="163" text-anchor="end" font-size="12" fill="#52525b">92.4</text>
<line x1="86" x2="924" y1="58" y2="58" stroke="#d4d4d8" stroke-width="1"/><text x="76" y="62" text-anchor="end" font-size="12" fill="#52525b">123.2</text>
<line x1="86" x2="924" y1="462" y2="462" stroke="#71717a"/>
<line x1="86" x2="86" y1="58" y2="462" stroke="#71717a"/>
<line x1="86" x2="86" y1="462" y2="468" stroke="#71717a"/><text x="86" y="486" text-anchor="middle" font-size="12" fill="#52525b">1992</text>
<line x1="302.258064516129" x2="302.258064516129" y1="462" y2="468" stroke="#71717a"/><text x="302.258064516129" y="486" text-anchor="middle" font-size="12" fill="#52525b">2000</text>
<line x1="924" x2="924" y1="462" y2="468" stroke="#71717a"/><text x="924" y="486" text-anchor="middle" font-size="12" fill="#52525b">2023</text>
<text x="86" y="46" font-size="12" fill="#52525b">kg nutrients per hectare</text>
<path d="M86.0,197.9 L302.3,180.0 L437.4,139.8 L572.6,101.4 L707.7,88.2 L842.9,58.0 L897.0,85.6 L924.0,80.1" fill="none" stroke="#2563eb" stroke-width="3"/><text x="916" y="72.13836514544846" text-anchor="end" font-size="13" fill="#2563eb">World: 116.4</text>
<path d="M86.0,205.8 L302.3,418.9 L437.4,407.1 L572.6,357.8 L707.7,324.2 L842.9,220.3 L897.0,284.1 L924.0,326.1" fill="none" stroke="#dc2626" stroke-width="3"/><text x="916" y="318.05424061907445" text-anchor="end" font-size="13" fill="#dc2626">Ukraine: 41.5</text>
<text x="86" y="504" font-size="12" fill="#71717a">Source: FAOSTAT 2025 via OWID.</text>
</svg>
