<svg xmlns="http://www.w3.org/2000/svg" width="960" height="520" viewBox="0 0 960 520" role="img" aria-label="Safely managed drinking water">
<rect width="100%" height="100%" fill="#fafafa"/>
<text x="86" y="30" font-size="23" font-weight="700" fill="#111827">Safely managed drinking water</text>
<text x="86" y="52" font-size="13" fill="#52525b">On premises, available when needed and free from priority contamination.</text>
<line x1="86" x2="924" y1="462" y2="462" stroke="#d4d4d8" stroke-width="1"/><text x="76" y="466" text-anchor="end" font-size="12" fill="#52525b">0</text>
<line x1="86" x2="924" y1="361" y2="361" stroke="#d4d4d8" stroke-width="1"/><text x="76" y="365" text-anchor="end" font-size="12" fill="#52525b">22.1</text>
<line x1="86" x2="924" y1="260" y2="260" stroke="#d4d4d8" stroke-width="1"/><text x="76" y="264" text-anchor="end" font-size="12" fill="#52525b">44.3</text>
<line x1="86" x2="924" y1="159" y2="159" stroke="#d4d4d8" stroke-width="1"/><text x="76" y="163" text-anchor="end" font-size="12" fill="#52525b">66.4</text>
<line x1="86" x2="924" y1="58" y2="58" stroke="#d4d4d8" stroke-width="1"/><text x="76" y="62" text-anchor="end" font-size="12" fill="#52525b">88.5</text>
<line x1="86" x2="924" y1="462" y2="462" stroke="#71717a"/>
<line x1="86" x2="86" y1="58" y2="462" stroke="#71717a"/>
<line x1="86" x2="86" y1="462" y2="468" stroke="#71717a"/><text x="86" y="486" text-anchor="middle" font-size="12" fill="#52525b">2000</text>
<line x1="924" x2="924" y1="462" y2="468" stroke="#71717a"/><text x="924" y="486" text-anchor="middle" font-size="12" fill="#52525b">2024</text>
<text x="86" y="46" font-size="12" fill="#52525b">Share of population, %</text>
<path d="M86.0,182.5 L260.6,175.4 L435.2,166.2 L609.8,153.1 L784.3,140.2 L854.2,135.4 L889.1,133.2 L924.0,125.6" fill="none" stroke="#2563eb" stroke-width="3"/><text x="916" y="117.57617294859358" text-anchor="end" font-size="13" fill="#2563eb">World: 73.7</text>
<path d="M86.0,159.3 L260.6,133.7 L435.2,75.9 L609.8,58.0 L784.3,59.5 L854.2,60.1 L889.1,60.6 L924.0,61.1" fill="none" stroke="#dc2626" stroke-width="3"/><text x="916" y="53.092071382493714" text-anchor="end" font-size="13" fill="#dc2626">Ukraine: 87.9</text>
<text x="86" y="504" font-size="12" fill="#71717a">Source: WHO/UNICEF JMP 2025 via OWID. Coverage is not ambient water quality.</text>
</svg>
