<svg xmlns="http://www.w3.org/2000/svg" width="960" height="520" viewBox="0 0 960 520" role="img" aria-label="Birth-to-death ratio: demographic replacement flow">
<rect width="100%" height="100%" fill="#fafafa"/>
<text x="86" y="30" font-size="23" font-weight="700" fill="#111827">Birth-to-death ratio: demographic replacement flow</text>
<text x="86" y="52" font-size="13" fill="#52525b">Above 1 means births exceeded deaths; this does not measure identity transfer.</text>
<line x1="86" x2="924" y1="462" y2="462" stroke="#d4d4d8" stroke-width="1"/><text x="76" y="466" text-anchor="end" font-size="12" fill="#52525b">0</text>
<line x1="86" x2="924" y1="361" y2="361" stroke="#d4d4d8" stroke-width="1"/><text x="76" y="365" text-anchor="end" font-size="12" fill="#52525b">0.7</text>
<line x1="86" x2="924" y1="260" y2="260" stroke="#d4d4d8" stroke-width="1"/><text x="76" y="264" text-anchor="end" font-size="12" fill="#52525b">1.5</text>
<line x1="86" x2="924" y1="159" y2="159" stroke="#d4d4d8" stroke-width="1"/><text x="76" y="163" text-anchor="end" font-size="12" fill="#52525b">2.2</text>
<line x1="86" x2="924" y1="58" y2="58" stroke="#d4d4d8" stroke-width="1"/><text x="76" y="62" text-anchor="end" font-size="12" fill="#52525b">2.9</text>
<line x1="86" x2="924" y1="462" y2="462" stroke="#71717a"/>
<line x1="86" x2="86" y1="58" y2="462" stroke="#71717a"/>
<line x1="86" x2="86" y1="462" y2="468" stroke="#71717a"/><text x="86" y="486" text-anchor="middle" font-size="12" fill="#52525b">1950</text>
<line x1="659.972602739726" x2="659.972602739726" y1="462" y2="468" stroke="#71717a"/><text x="659.972602739726" y="486" text-anchor="middle" font-size="12" fill="#52525b">2000</text>
<line x1="924" x2="924" y1="462" y2="468" stroke="#71717a"/><text x="924" y="486" text-anchor="middle" font-size="12" fill="#52525b">2023</text>
<text x="86" y="46" font-size="12" fill="#52525b">Ratio</text>
<path d="M86.0,198.6 L97.5,195.0 L109.0,176.2 L120.4,175.6 L131.9,163.4 L143.4,158.6 L154.9,157.5 L166.4,147.5 L177.8,149.2 L189.3,182.3 L200.8,201.3 L212.3,180.8 L223.8,123.7 L235.2,106.8 L246.7,113.6 L258.2,122.1 L269.7,121.2 L281.2,120.2 L292.6,106.3 L304.1,106.5 L315.6,103.6 L327.1,113.5 L338.5,102.3 L350.0,100.8 L361.5,102.6 L373.0,108.6 L384.5,108.3 L395.9,105.9 L407.4,102.8 L418.9,91.8 L430.4,87.7 L441.9,82.0 L453.3,73.3 L464.8,81.3 L476.3,76.2 L487.8,73.1 L499.3,63.7 L510.7,58.0 L522.2,63.3 L533.7,59.7 L545.2,61.3 L556.7,78.1 L568.1,84.2 L579.6,90.9 L591.1,100.1 L602.6,97.2 L614.1,98.6 L625.5,99.7 L637.0,103.0 L648.5,104.7 L660.0,100.6 L671.5,102.9 L682.9,105.1 L694.4,106.4 L705.9,104.8 L717.4,104.7 L728.8,100.6 L740.3,97.6 L751.8,96.8 L763.3,94.6 L774.8,94.6 L786.2,95.4 L797.7,91.3 L809.2,95.9 L820.7,98.3 L832.2,105.5 L843.6,107.1 L855.1,115.1 L866.6,124.3 L878.1,131.7 L889.6,167.2 L901.0,195.8 L912.5,166.2 L924.0,164.0" fill="none" stroke="#2563eb" stroke-width="3"/><text x="916" y="155.98803894875425" text-anchor="end" font-size="13" fill="#2563eb">Births / deaths: 2.1</text>
<text x="86" y="504" font-size="12" fill="#71717a">Derived from UN WPP 2024 births and deaths via OWID.</text>
</svg>
